<svg id="Layer_1" data-name="Layer 1" xmlns="http://www.w3.org/2000/svg" viewBox="0 0 512 512"><title>barbecue-flat</title><path d="M55,9.14H457a55,55,0,0,1,55,55V447.88a55,55,0,0,1-55,55H55a55,55,0,0,1-55-55V64.12a55,55,0,0,1,55-55Z" transform="translate(512) rotate(90)" fill="#e6d6a6"/><rect x="20.23" y="11.1" width="471.53" height="489.81" rx="43.89" ry="43.89" fill="#008982"/><path d="M394.19,249.56c-5.18-5.32-15.71-7.27-23.25-9a540.55,540.55,0,0,0-62.1-10.94,485.06,485.06,0,0,0-125.14,2.48c-11.62,1.74-23.15,3.88-34.52,6.51-6,1.39-12.06,2.66-18,4.1-3.54.85-7.13,1.69-10.56,2.81a7,7,0,0,0-3.7,2.51c-1.86,2.59-1.25,6.26-.77,9.29,1,6.37,1.76,12.88,3.82,19.09,4,12.14,10.88,23.45,19.57,33.78a136.61,136.61,0,0,0,17,16.68,166.14,166.14,0,0,0,58.23,30.75L196.9,402.46l16,4.29,18-45.45a139.49,139.49,0,0,0,16.61,1.84v43.15h16.86V363.06a140.17,140.17,0,0,0,16.53-2l18.1,45.64,16-4.29-17.91-45.17a166.35,166.35,0,0,0,57.15-30.44c21-17.16,36-39.65,39.66-63.91C394.76,257.93,398.87,254.37,394.19,249.56Z" fill="#eedaa6"/><path d="M323.74,245.7c-3.47-4.46-5.94-8.91-4-13.37-1.62-.26-3.25-.5-4.88-.74-2.89,5.23.1,10.47,3.74,15.7,1.14,1.64,2.33,3.27,3.42,4.91,2.95,4.43,5.13,8.86,3.07,13.29q4.31-.51,8.43-1.05c1.39-4.63-2-9.26-5.85-13.89C326.38,248.94,325,247.32,323.74,245.7ZM297.4,246c-2.78-5.56-4.65-11.12-1.66-16.68-1.65-.15-3.31-.29-5-.42-3.3,6-1.51,12,.87,18.06.64,1.63,1.32,3.26,2,4.9,2.14,5.57,3.68,11.13.65,16.7q4.11-.32,8.22-.69c3-5.67.41-11.34-2.52-17C299.09,249.26,298.21,247.64,297.4,246Zm52.52-.64c-2.91-2.78-5.25-5.56-5.83-8.34l-5.6-1.18c-.09,3.92,3.41,7.84,7.32,11.75,1.64,1.64,3.35,3.28,4.89,4.92,2.72,2.9,4.91,5.79,5.19,8.69l3.12-.5,4.57-.82c-1.18-3.23-4.62-6.46-8.27-9.69C353.49,248.61,351.61,247,349.93,245.38Zm32.81,4.5c-2.31-1.61-4.68-3.22-6.78-4.82-.58-.45-1.15-.9-1.69-1.34l-8-1.79a55.63,55.63,0,0,0,7,6c2.14,1.64,4.36,3.29,6.34,4.93a39.28,39.28,0,0,1,3.08,2.82,28.55,28.55,0,0,0,5.28-2.07C386.29,252.38,384.52,251.13,382.73,249.89ZM270.9,246.34c-1.32-6.16-2.2-12.32-.92-18.48-1.73,0-3.46-.1-5.2-.14-1,6.31-.6,12.62,0,18.93.16,1.63.32,3.25.48,4.88.6,6.17,1,12.35,0,18.52q3.87-.08,7.72-.22c1.58-6.21.36-12.42-1-18.62C271.61,249.59,271.24,248,270.9,246.34Zm-83.09-.64c-1.19,1.62-2.5,3.23-3.75,4.85-3.61,4.65-6.79,9.29-5.15,13.94q4.16.54,8.49,1.06c-2.3-4.45-.36-8.89,2.39-13.34,1-1.64,2.13-3.27,3.2-4.91,3.38-5.18,6.18-10.36,3.16-15.54-1.62.24-3.24.49-4.85.75C193.34,236.91,191,241.31,187.8,245.7Zm57.39,1c.44-6.28.76-12.57-.9-18.85-1.74,0-3.47.07-5.19.13,1.87,6.13,1.11,12.27,0,18.4-.3,1.62-.63,3.25-.93,4.87-1.16,6.19-2.07,12.39-.09,18.58q3.87.16,7.74.24c-1.47-6.16-1.35-12.33-.93-18.49C245,249.92,245.08,248.29,245.19,246.66Zm-25.37.32c2.11-6,3.73-12,.11-17.94-1.67.13-3.33.27-5,.42,3.26,5.52,1.57,11-1,16.57-.74,1.62-1.55,3.24-2.32,4.86-2.69,5.68-4.91,11.36-1.68,17q4.12.37,8.25.69c-3.28-5.58-2.07-11.15-.17-16.73C218.62,250.24,219.24,248.61,219.81,247Zm-84.24-1.92c-2,1.61-4.33,3.22-6.57,4.82-1.7,1.22-3.37,2.44-4.88,3.66a27.41,27.41,0,0,0,5.32,2.12,36.32,36.32,0,0,1,2.93-2.8c1.89-1.64,4-3.29,6.11-4.93a54.63,54.63,0,0,0,6.53-5.82l-8,1.78Q136.32,244.48,135.58,245.06Zm26,.32c-1.62,1.61-3.43,3.22-5.17,4.83-3.51,3.24-6.79,6.47-7.8,9.71l4.48.81,3.28.52c.13-2.91,2.17-5.81,4.76-8.72,1.46-1.64,3.09-3.28,4.66-4.92,3.68-3.85,7-7.71,6.84-11.56l-5.59,1.2C166.53,240,164.34,242.68,161.61,245.38Z" fill="#008982"/><path d="M253.74,105.25c-16.08,46.23,38.19,73.17,0,119.9,23.12-58.63-29.85-66.72,0-119.9Z" fill="#eedaa6" fill-rule="evenodd"/><path d="M280.79,122c-11.62,33.28,27.46,52.74,0,86.4,16.6-42.3-21.54-48.09,0-86.4Z" fill="#eedaa6" fill-rule="evenodd"/><path d="M228,122c-11.55,33.28,27.52,52.74,0,86.4,16.66-42.3-21.53-48.09,0-86.4Z" fill="#eedaa6" fill-rule="evenodd"/></svg>